<svg width="9" height="10" viewBox="0 0 9 10" fill="none" xmlns="http://www.w3.org/2000/svg">
<mask id="path-1-inside-1_1_972" fill="white">
<path d="M3.30469 0.36792C4.31316 0.348541 5.26023 0.348698 6.22754 0.387451C7.75052 0.464965 8.94425 1.80189 8.92383 3.33276C8.88266 4.82496 7.66852 6.04619 6.14551 6.12378C5.73387 6.16254 5.34223 6.16284 4.95117 6.16284H3.20215V6.66675H5.48633V7.9646H3.20215V9.76733H1.7207V7.9646H0.793945V6.66675H1.7207V6.14331H0.773438V4.84448H1.7207V0.387451H1.92578C2.39905 0.387451 2.852 0.387285 3.30469 0.36792ZM3.94336 1.64722H3.20215V4.84448H3.55176V4.86401H4.27246C5.13688 4.88339 5.7341 4.86386 6.08398 4.84448C6.90707 4.76679 7.56546 4.06941 7.54492 3.25562C7.54492 2.40291 6.84499 1.70551 5.95996 1.66675C5.30147 1.62801 4.643 1.64721 3.94336 1.64722Z"/>
</mask>
<path d="M3.30469 0.36792C4.31316 0.348541 5.26023 0.348698 6.22754 0.387451C7.75052 0.464965 8.94425 1.80189 8.92383 3.33276C8.88266 4.82496 7.66852 6.04619 6.14551 6.12378C5.73387 6.16254 5.34223 6.16284 4.95117 6.16284H3.20215V6.66675H5.48633V7.9646H3.20215V9.76733H1.7207V7.9646H0.793945V6.66675H1.7207V6.14331H0.773438V4.84448H1.7207V0.387451H1.92578C2.39905 0.387451 2.852 0.387285 3.30469 0.36792ZM3.94336 1.64722H3.20215V4.84448H3.55176V4.86401H4.27246C5.13688 4.88339 5.7341 4.86386 6.08398 4.84448C6.90707 4.76679 7.56546 4.06941 7.54492 3.25562C7.54492 2.40291 6.84499 1.70551 5.95996 1.66675C5.30147 1.62801 4.643 1.64721 3.94336 1.64722Z" fill="#C4C4C4"/>
<path d="M3.30469 0.36792L3.29988 0.117897L3.294 0.118148L3.30469 0.36792ZM6.22754 0.387451L6.24025 0.13776L6.23755 0.137652L6.22754 0.387451ZM8.92383 3.33276L9.17376 3.33966L9.17381 3.3361L8.92383 3.33276ZM6.14551 6.12378L6.13278 5.87387L6.12207 5.87488L6.14551 6.12378ZM3.20215 6.16284V5.91284H2.95215V6.16284H3.20215ZM3.20215 6.66675H2.95215V6.91675H3.20215V6.66675ZM5.48633 6.66675H5.73633V6.41675H5.48633V6.66675ZM5.48633 7.9646V8.2146H5.73633V7.9646H5.48633ZM3.20215 7.9646V7.7146H2.95215V7.9646H3.20215ZM3.20215 9.76733V10.0173H3.45215V9.76733H3.20215ZM1.7207 9.76733H1.4707V10.0173H1.7207V9.76733ZM1.7207 7.9646H1.9707V7.7146H1.7207V7.9646ZM0.793945 7.9646H0.543945V8.2146H0.793945V7.9646ZM0.793945 6.66675V6.41675H0.543945V6.66675H0.793945ZM1.7207 6.66675V6.91675H1.9707V6.66675H1.7207ZM1.7207 6.14331H1.9707V5.89331H1.7207V6.14331ZM0.773438 6.14331H0.523438V6.39331H0.773438V6.14331ZM0.773438 4.84448V4.59448H0.523438V4.84448H0.773438ZM1.7207 4.84448V5.09448H1.9707V4.84448H1.7207ZM1.7207 0.387451V0.137451H1.4707V0.387451H1.7207ZM3.94336 1.64722V1.89722H3.94336L3.94336 1.64722ZM3.20215 1.64722V1.39722H2.95215V1.64722H3.20215ZM3.20215 4.84448H2.95215V5.09448H3.20215V4.84448ZM3.55176 4.84448H3.80176V4.59448H3.55176V4.84448ZM3.55176 4.86401H3.30176V5.11401H3.55176V4.86401ZM4.27246 4.86401L4.27807 4.61401H4.27246V4.86401ZM6.08398 4.84448L6.09782 5.09429L6.10748 5.09338L6.08398 4.84448ZM7.54492 3.25562H7.29484L7.295 3.26192L7.54492 3.25562ZM5.95996 1.66675L5.94528 1.91634L5.94902 1.91651L5.95996 1.66675ZM3.30469 0.36792L3.30949 0.617874C4.31496 0.598553 5.25678 0.59876 6.21753 0.637251L6.22754 0.387451L6.23755 0.137652C5.26369 0.098636 4.31135 0.0985297 3.29988 0.117966L3.30469 0.36792ZM6.22754 0.387451L6.21483 0.637128C7.59629 0.707439 8.69258 1.92556 8.67385 3.32943L8.92383 3.33276L9.17381 3.3361C9.19593 1.67821 7.90474 0.222491 6.24025 0.137774L6.22754 0.387451ZM8.92383 3.33276L8.67392 3.32587C8.63647 4.6835 7.52969 5.80294 6.13279 5.8741L6.14551 6.12378L6.15823 6.37346C7.80735 6.28945 9.12886 4.96642 9.17373 3.33966L8.92383 3.33276ZM6.14551 6.12378L6.12207 5.87488C5.72384 5.91238 5.34353 5.91284 4.95117 5.91284V6.16284V6.41284C5.34094 6.41284 5.74389 6.4127 6.16894 6.37268L6.14551 6.12378ZM4.95117 6.16284V5.91284H3.20215V6.16284V6.41284H4.95117V6.16284ZM3.20215 6.16284H2.95215V6.66675H3.20215H3.45215V6.16284H3.20215ZM3.20215 6.66675V6.91675H5.48633V6.66675V6.41675H3.20215V6.66675ZM5.48633 6.66675H5.23633V7.9646H5.48633H5.73633V6.66675H5.48633ZM5.48633 7.9646V7.7146H3.20215V7.9646V8.2146H5.48633V7.9646ZM3.20215 7.9646H2.95215V9.76733H3.20215H3.45215V7.9646H3.20215ZM3.20215 9.76733V9.51733H1.7207V9.76733V10.0173H3.20215V9.76733ZM1.7207 9.76733H1.9707V7.9646H1.7207H1.4707V9.76733H1.7207ZM1.7207 7.9646V7.7146H0.793945V7.9646V8.2146H1.7207V7.9646ZM0.793945 7.9646H1.04395V6.66675H0.793945H0.543945V7.9646H0.793945ZM0.793945 6.66675V6.91675H1.7207V6.66675V6.41675H0.793945V6.66675ZM1.7207 6.66675H1.9707V6.14331H1.7207H1.4707V6.66675H1.7207ZM1.7207 6.14331V5.89331H0.773438V6.14331V6.39331H1.7207V6.14331ZM0.773438 6.14331H1.02344V4.84448H0.773438H0.523438V6.14331H0.773438ZM0.773438 4.84448V5.09448H1.7207V4.84448V4.59448H0.773438V4.84448ZM1.7207 4.84448H1.9707V0.387451H1.7207H1.4707V4.84448H1.7207ZM1.7207 0.387451V0.637451H1.92578V0.387451V0.137451H1.7207V0.387451ZM1.92578 0.387451V0.637451C2.39819 0.637451 2.85646 0.637322 3.31537 0.617691L3.30469 0.36792L3.294 0.118148C2.84753 0.137247 2.39991 0.137451 1.92578 0.137451V0.387451ZM3.94336 1.64722V1.39722H3.20215V1.64722V1.89722H3.94336V1.64722ZM3.20215 1.64722H2.95215V4.84448H3.20215H3.45215V1.64722H3.20215ZM3.20215 4.84448V5.09448H3.55176V4.84448V4.59448H3.20215V4.84448ZM3.55176 4.84448H3.30176V4.86401H3.55176H3.80176V4.84448H3.55176ZM3.55176 4.86401V5.11401H4.27246V4.86401V4.61401H3.55176V4.86401ZM4.27246 4.86401L4.26686 5.11395C5.13767 5.13347 5.74137 5.11384 6.09781 5.0941L6.08398 4.84448L6.07016 4.59486C5.72682 4.61388 5.13609 4.63331 4.27806 4.61408L4.27246 4.86401ZM6.08398 4.84448L6.10748 5.09338C7.05136 5.00428 7.81894 4.20427 7.79484 3.24931L7.54492 3.25562L7.295 3.26192C7.31197 3.93454 6.76277 4.5293 6.06049 4.59559L6.08398 4.84448ZM7.54492 3.25562H7.79492C7.79492 2.25924 6.97956 1.46116 5.9709 1.41699L5.95996 1.66675L5.94902 1.91651C6.71042 1.94985 7.29492 2.54657 7.29492 3.25562H7.54492ZM5.95996 1.66675L5.97464 1.41718C5.30637 1.37786 4.63328 1.39721 3.94336 1.39722L3.94336 1.64722L3.94336 1.89722C4.65271 1.89721 5.29657 1.87815 5.94528 1.91632L5.95996 1.66675Z" fill="white" mask="url(#path-1-inside-1_1_972)"/>
</svg>
