<svg width="16" height="19" viewBox="0 0 16 19" fill="none" xmlns="http://www.w3.org/2000/svg">
<path d="M2.29395 9.076C2.29395 6.27575 2.29395 3.4755 2.29395 0.488564C5.14982 0.488564 7.73556 0.376557 10.3213 0.525903C13.0228 0.67525 15.0682 3.13948 14.991 5.82772C14.9138 8.44128 12.8298 10.7188 10.1283 10.8308C8.19868 10.9428 6.30761 10.8682 4.30078 10.8682L2.29395 9.076ZM4.30078 2.20605C4.30078 4.5956 4.30078 6.8358 4.30078 9.15068C4.80249 9.18802 6.30762 9.15068 6.69354 9.15068C7.77415 9.15068 9.27928 9.18801 10.1283 9.076C11.9422 8.88932 13.2543 7.35852 13.2158 5.64103C13.1772 3.84887 11.7878 2.31806 9.89675 2.20605C8.08288 2.13138 6.23043 2.20605 4.30078 2.20605Z" fill="#1C62CD"/>
<path d="M7.96729 11.2789C7.3884 11.2789 6.77091 11.2789 6.15342 11.2789C5.53593 11.2789 4.91845 11.2789 4.30097 11.2789V10.5322C4.91845 10.5322 5.53593 10.5322 6.15342 10.5322C7.50417 10.5322 8.81635 10.5695 10.1285 10.4948C12.5985 10.3455 14.5667 8.3293 14.6053 5.82774C14.6825 3.25151 12.7142 1.04864 10.2829 0.899295C8.50759 0.787285 6.73232 0.824619 4.87986 0.861956C4.1466 0.861956 3.41333 0.899295 2.68006 0.899295V9.11336H1.9082V0.152561H2.29413C3.18177 0.152561 4.03082 0.152559 4.87986 0.115222C6.77091 0.0778855 8.54619 0.0778878 10.3601 0.152561C13.2159 0.301908 15.4543 2.87814 15.4157 5.82774C15.3385 8.70266 13.0615 11.0549 10.2057 11.2042C9.43382 11.2789 8.70056 11.2789 7.96729 11.2789ZM7.96729 9.52407C7.58136 9.52407 7.15685 9.52407 6.69373 9.52407C6.53936 9.52407 6.23063 9.52407 5.88329 9.52407C5.2658 9.52407 4.57113 9.52407 4.26238 9.52407L3.91504 9.48673V1.79537H4.30097C4.91845 1.79537 5.49736 1.79537 6.07625 1.79537C7.38841 1.79537 8.66198 1.75804 9.93554 1.83271C11.981 1.94472 13.6019 3.62488 13.6405 5.64106C13.679 7.58256 12.1353 9.26271 10.2057 9.44939C9.70397 9.52407 8.93211 9.52407 7.96729 9.52407ZM6.53935 8.77734C6.61654 8.77734 6.65514 8.77734 6.69373 8.77734C8.31463 8.81467 9.43382 8.77733 10.0899 8.74C11.6336 8.59065 12.8686 7.24653 12.83 5.67838C12.83 4.03557 11.5178 2.69146 9.85835 2.61678C8.62338 2.54211 7.38841 2.57945 6.07625 2.57945C5.61314 2.57945 5.15001 2.57945 4.6869 2.57945V8.77734C5.03423 8.77734 5.49736 8.77734 5.88329 8.77734C6.15344 8.77734 6.38498 8.77734 6.53935 8.77734Z" fill="#1C62CD"/>
<path d="M4.99531 9.15063H0.557129V10.9055H4.99531V9.15063Z" fill="#1C62CD"/>
<path d="M5.34334 11.2416H0.133301V8.73999H5.34334V11.2416ZM0.943742 10.4948H4.61007V9.48672H0.943742V10.4948Z" fill="#1C62CD"/>
<path d="M8.58447 12.623H0.557129V14.3779H8.58447V12.623Z" fill="#1C62CD"/>
<path d="M8.9701 14.7513H0.170898V12.2498H8.9701V14.7513ZM0.942756 14.0046H8.19824V12.9965H0.942756V14.0046Z" fill="#1C62CD"/>
<path d="M4.30078 8.06787H2.29395V17.8501H4.30078V8.06787Z" fill="#1C62CD"/>
<path d="M4.6869 18.2235H1.9082V7.69458H4.6869V18.2235ZM2.68006 17.4768H3.91504V8.44131H2.68006V17.4768Z" fill="#1C62CD"/>
</svg>
