<svg width="31" height="23" viewBox="0 0 31 23" fill="none" xmlns="http://www.w3.org/2000/svg">
<path d="M30.1135 0L29.1844 2.5H26.772L22.4276 17.5H5.87143L0.100098 3.75H21.1245L20.4192 6.25H3.86178L7.53468 15H20.5755L24.8674 0H30.1135ZM10.7299 18.75C9.6944 18.75 8.85402 19.59 8.85402 20.625C8.85402 21.6612 9.6944 22.5 10.7299 22.5C11.7653 22.5 12.6057 21.6612 12.6057 20.625C12.6057 19.59 11.7653 18.75 10.7299 18.75ZM19.3587 10L16.9827 18.75C15.9472 18.75 15.1068 19.5888 15.1068 20.625C15.1068 21.6612 15.9472 22.5 16.9827 22.5C18.0181 22.5 18.8585 21.6612 18.8585 20.625C18.8585 19.59 18.0181 18.75 16.9827 18.75L19.3587 10Z" fill="white"/>
</svg>
